<?xml version="1.0" standalone="no"?><!DOCTYPE svg PUBLIC "-//W3C//DTD SVG 1.1//EN" "http://www.w3.org/Graphics/SVG/1.1/DTD/svg11.dtd"><svg t="1637208390812" class="icon" viewBox="0 0 1024 1024" version="1.1" xmlns="http://www.w3.org/2000/svg" p-id="3273" xmlns:xlink="http://www.w3.org/1999/xlink" width="128" height="128"><defs><style type="text/css"></style></defs><path d="M508.738056 812.764515a200.473359 200.473359 0 0 1-169.676002-92.997364l39.949401-25.494982a153.914148 153.914148 0 0 0 265.118753-9.527326l41.644225 22.577464a201.1755 201.1755 0 0 1-177.036377 105.442208z" p-id="3274" fill="#ff8198"></path><path d="M511.970326 999.049783v-47.382411c249.296369 0 452.130375-202.821899 452.130374-452.118269S761.266695 47.430835 511.970326 47.430835 59.852057 250.252734 59.852057 499.549103a456.549021 456.549021 0 0 0 10.834762 98.941351l-46.208141 10.314209a501.473938 501.473938 0 0 1-11.98482-109.25556C12.481752 224.140353 236.537363 0 511.970326 0s499.50068 224.140353 499.500679 499.549103S787.354865 999.049783 511.970326 999.049783z" p-id="3275" fill="#ff8198"></path><path d="M96.423918 639.105678a85.116436 85.116436 0 0 1-66.497594-31.898991l36.862402-29.756251a38.048778 38.048778 0 0 0 67.792923-23.836476v-108.117607a38.157731 38.157731 0 0 0-38.121414-38.121414 37.528225 37.528225 0 0 0-24.211758 8.764657l-30.204168-36.499226a85.406977 85.406977 0 0 1 139.883433 65.855983v108.141818a85.588566 85.588566 0 0 1-85.503824 85.467507zM939.235224 639.105678a85.588566 85.588566 0 0 1-85.503824-85.479613v-108.129712a85.394872 85.394872 0 0 1 139.907645-65.843877l-30.264698 36.462908a38.012461 38.012461 0 0 0-62.224218 29.380969v108.141818a38.048778 38.048778 0 0 0 67.792923 23.836476l36.874508 29.744145a85.128542 85.128542 0 0 1-66.582336 31.886886z" p-id="3276" fill="#ff8198"></path><path d="M522.393487 976.49653m-47.503469 0a47.50347 47.50347 0 1 0 95.006939 0 47.50347 47.50347 0 1 0-95.006939 0Z" p-id="3277" fill="#ff8198"></path></svg>