<?xml version="1.0" standalone="no"?><!DOCTYPE svg PUBLIC "-//W3C//DTD SVG 1.1//EN" "http://www.w3.org/Graphics/SVG/1.1/DTD/svg11.dtd"><svg t="1637994368670" class="icon" viewBox="0 0 1024 1024" version="1.1" xmlns="http://www.w3.org/2000/svg" p-id="2768" xmlns:xlink="http://www.w3.org/1999/xlink" width="128" height="128"><defs><style type="text/css"></style></defs><path d="M1010.522034 378.125967c-2.697435-7.186679-9.568936-11.9471-17.244756-11.9471l-317.167616-0.024559L531.542078 29.566386c-2.907213-6.767124-9.56382-11.149944-16.924461-11.149944-0.021489 0-0.042979 0-0.064468 0-7.386224 0.025583-14.042831 4.461615-16.910135 11.269671L355.918175 366.154307l-319.960219 0.024559c-7.66354 0-14.524808 4.746094-17.231453 11.915377-2.706645 7.169283-0.690732 15.264659 5.061272 20.329001l264.485767 232.853325-87.217411 311.044152c-2.061962 7.354502 0.62831 15.21861 6.764054 19.768229 6.135744 4.548596 14.44192 4.840238 20.881586 0.730641l285.916868-182.503591 285.915845 182.503591c3.027963 1.933025 6.471388 2.892887 9.909697 2.892887 3.796466 0 7.584746-1.171686 10.799974-3.497661 6.124488-4.431939 8.919137-12.156878 7.04751-19.481703l-43.378973-169.779801c-0.10847-0.425695-0.233314-0.848321-0.37146-1.264806-7.653307-22.956851-15.889899-63.611783-9.262968-77.967746 4.264117-9.235338 0.233314-20.179598-9.004071-24.443715-9.239432-4.264117-20.180622-0.233314-24.443715 9.004071-7.04137 15.252379-7.662517 37.273928-1.899256 67.321268 3.518127 18.34788 8.340969 33.67189 9.441023 37.062104l31.686676 124.018571L524.528338 742.937696c-6.043646-3.857864-13.776771-3.857864-19.820418 0L249.554706 905.804041l77.314877-275.729855c1.910513-6.814196-0.251733-14.121626-5.563716-18.797112L84.751243 403.013797l283.396465-0.021489c7.40976 0 14.097066-4.441149 16.97358-11.269671L514.783393 83.893712l132.266419 307.947628c2.90619 6.765077 9.56075 11.149944 16.923438 11.149944l280.237519 0.021489L711.389166 606.468558c-7.659447 6.693446-8.443299 18.329461-1.74883 25.989931 6.693446 7.659447 18.331507 8.442276 25.989931 1.74883l269.766027-235.739049C1011.175927 393.417231 1013.219469 385.311623 1010.522034 378.125967z" p-id="2769"></path></svg>