<?xml version="1.0" standalone="no"?><!DOCTYPE svg PUBLIC "-//W3C//DTD SVG 1.1//EN" "http://www.w3.org/Graphics/SVG/1.1/DTD/svg11.dtd"><svg t="1636544241409" class="icon" viewBox="0 0 1025 1024" version="1.1" xmlns="http://www.w3.org/2000/svg" p-id="4385" xmlns:xlink="http://www.w3.org/1999/xlink" width="128.125" height="128"><defs><style type="text/css"></style></defs><path d="M939.643753 152.782448 735.998156 152.782448l0 0c-11.672034-0.947003-26.337077 5.916017-29.783087 20.825061l-35.212103 142.092416L84.311247 315.699925c-11.247033 0-20.36706 9.128027-20.36706 20.36706l0 20.36706c0 11.251033 9.119027 20.36206 20.36706 20.36206l571.547674 0-20.187059 81.460239L145.406426 458.256343c-11.247033 0-20.36706 9.109027-20.36706 20.36706l0 20.36206c0 11.257033 9.119027 20.36706 20.36706 20.36706l475.123392 0-20.185059 81.460239L206.500605 600.81276c-11.247033 0-20.36706 9.109027-20.36706 20.36206l0 20.36706c0 11.257033 9.119027 20.36706 20.36706 20.36706l414.961216 0c0 0 2.115006 0.107 0 0l0 0c11.751034 0 27.494081-5.819017 32.113094-21.929064l105.596309-426.101248 180.472529 0c11.247033 0 20.36206-9.109027 20.36206-20.36706l0-20.36706C960.005813 161.886474 950.890786 152.782448 939.643753 152.782448L939.643753 152.782448zM939.643753 152.782448" p-id="4386"></path><path d="M574.086682 702.690059c-35.342104 0-64.000188 28.642084-64.000188 64.000188 0 35.342104 28.657084 64.000188 64.000188 64.000188 35.342104 0 64.000188-28.657084 64.000188-64.000188C638.087869 731.333143 609.428785 702.690059 574.086682 702.690059L574.086682 702.690059zM574.086682 702.690059" p-id="4387"></path><path d="M253.594743 702.690059c-35.342104 0-64.000188 28.642084-64.000188 64.000188 0 35.342104 28.657084 64.000188 64.000188 64.000188s64.000188-28.657084 64.000188-64.000188C317.59493 731.333143 288.936846 702.690059 253.594743 702.690059L253.594743 702.690059zM253.594743 702.690059" p-id="4388"></path><path d="M92.806272 429.91226c0.115 0.305001 0.243001 0.602002 0.385001 0.892003L92.806272 429.91226z" p-id="4389"></path><path d="M155.912457 422.048236l0.031 0.146c-1.585005-3.612011-5.188015-6.138018-9.385027-6.138018l-44.167129 0c-5.661017 0-10.25003 4.589013-10.25003 10.25003 0 1.271004 0.242001 2.483007 0.665002 3.606011l0.385001 0.892003 93.306273 215.983633 56.969167-22.071065L155.912457 422.048236z" p-id="4390"></path></svg>